/* XPM */
static char *graphic[] = {
/* width height num_colors chars_per_pixel */
"32 32 521 2", 
/* colors */
"   c None",
".  c #476170",
"X  c None",
"o  c #BED7E6",
"O  c #496272",
"+  c None",
"@  c #5190B5",
"#  c None",
"$  c #385262",
"%  c #64A1C7",
"&  c #5391B7",
"*  c None",
"=  c #3A5364",
"-  c None",
";  c #5288A9",
":  c #BEC6CC",
">  c #455E6D",
",  c #74AACB",
"<  c #84B1CD",
"1  c #344E5D",
"2  c #BCD4E3",
"3  c #629EC4",
"4  c None",
"5  c None",
"6  c #2D475A",
"7  c None",
"8  c #B5D3E5",
"9  c #5E9ABF",
"0  c #385263",
"q  c #547180",
"w  c #435D6C",
"e  c #5A94BD",
"r  c #609BC1",
"t  c #4785AA",
"y  c #455E6E",
"u  c #4D8CB1",
"i  c #D6DBDF",
"p  c #344E5E",
"a  c #4D8AB1",
"s  c None",
"d  c #4F8DB3",
"f  c None",
"g  c #CCDDE8",
"h  c None",
"j  c #FBFCFC",
"k  c #5C99BE",
"l  c #C5DAE8",
"z  c #5893B7",
"x  c #D5E3EC",
"c  c #365364",
"v  c None",
"b  c None",
"n  c #5895B9",
"m  c #4F6677",
"M  c #314A59",
"N  c None",
"B  c #506978",
"V  c None",
"C  c None",
"Z  c #526A7A",
"A  c #4E6878",
"S  c #5A98BD",
"D  c #415A6A",
"F  c #4783AB",
"G  c #4988AD",
"H  c #DEEBF2",
"J  c #304A5A",
"K  c #DFE3E6",
"L  c #69A5CA",
"P  c #5895BA",
"I  c #A9B6BD",
"U  c #B6C0C6",
"Y  c None",
"T  c None",
"R  c None",
"E  c None",
"W  c #758894",
"Q  c #3F5969",
"!  c #619BBE",
"~  c #4787AC",
"^  c #F9FBFC",
"/  c #2E4959",
"(  c #4988AE",
")  c #4C6574",
"_  c #4C8BB1",
"`  c #4684AB",
"'  c #4584AB",
"]  c None",
"[  c #5694B9",
"{  c #669BBB",
"}  c #83ACC6",
"|  c #3D5666",
" . c None",
".. c #F7F8F9",
"X. c #5895BB",
"o. c #94BED8",
"O. c #689CBD",
"+. c #F7FAFB",
"@. c #65A1C6",
"#. c #689EBF",
"$. c #4989AE",
"%. c #4787AD",
"&. c #F9FBFD",
"*. c #4789AF",
"=. c None",
"-. c #4C6575",
";. c #649ABA",
":. c None",
">. c #A7B3BB",
",. c #3B5565",
"<. c #F5F7F8",
"1. c #BFC8CD",
"2. c #607480",
"3. c #5694BA",
"4. c #4C6777",
"5. c #3D5667",
"6. c #C1C9CF",
"7. c #486170",
"8. c None",
"9. c #5993B5",
"0. c None",
"q. c #F7FAFC",
"w. c None",
"e. c #65A1C7",
"r. c #BDC5CA",
"t. c #3B5163",
"y. c #5491B7",
"u. c None",
"i. c #425E6E",
"p. c #2D4A5C",
"a. c #619DC2",
"s. c #536A78",
"d. c #46606F",
"f. c None",
"g. c #427A9B",
"h. c #35505F",
"j. c #486171",
"k. c #508FB4",
"l. c #447B9D",
"z. c #D9DEE2",
"x. c #607683",
"c. c #375161",
"v. c #48606F",
"b. c None",
"n. c #5290B6",
"m. c #68A4C7",
"M. c #5F9ABF",
"N. c #395263",
"B. c #4A6072",
"V. c #E3EDF4",
"C. c #87B6D3",
"Z. c #D5DADD",
"A. c #334D5C",
"S. c #4E8CB1",
"D. c #354E5E",
"F. c #374F62",
"G. c #619DC3",
"H. c #536A79",
"J. c None",
"K. c #77A0B9",
"L. c #909EA6",
"P. c #BBC4CA",
"I. c None",
"U. c #556D7D",
"Y. c #445D6D",
"T. c #304D5B",
"R. c #3E5667",
"E. c #639CC4",
"W. c #445D6D",
"Q. c #F1F5F7",
"!. c #334D5D",
"~. c #4E8CB2",
"^. c #6AA7CB",
"/. c #68A0C4",
"(. c #516978",
"). c #6CA8CD",
"_. c #5B98BD",
"`. c #7EA3BA",
"'. c #788995",
"]. c #425A6A",
"[. c #659CBA",
"{. c #5D99BF",
"}. c #88B2CC",
"|. c #425C6C",
" X c #49616E",
".X c None",
"XX c #4C8BB1",
"oX c #4F6877",
"OX c #556F80",
"+X c None",
"@X c #AAB6BD",
"#X c #7DABC7",
"$X c #516979",
"%X c #5997BC",
"&X c #6AA5CC",
"*X c #5B98BE",
"=X c None",
"-X c #639FC6",
";X c #CBDEEA",
":X c None",
">X c #DEE2E5",
",X c None",
"<X c #68A4C9",
"1X c #E6F0F5",
"2X c #788B98",
"3X c #344F5C",
"4X c #4A8AB0",
"5X c #4D6776",
"6X c #F8F8F9",
"7X c None",
"8X c None",
"9X c None",
"0X c #314E5F",
"qX c #AAB6BE",
"wX c #3E5868",
"eX c #6DA4C6",
"rX c #425D6C",
"tX c #4887AD",
"yX c #4B6473",
"uX c #5390B5",
"iX c #2D4958",
"pX c #649EC4",
"aX c #5593B8",
"sX c #BED4E2",
"dX c #3C5565",
"fX c #F6F7F8",
"gX c #5794BA",
"hX c None",
"jX c #2F4D5E",
"kX c #3F5668",
"lX c #F6F9FA",
"zX c #64A0C5",
"xX c #748794",
"cX c #4686AC",
"vX c None",
"bX c #457D9E",
"nX c #5D9AC0",
"mX c #51697C",
"MX c #4B6474",
"NX c #304D5A",
"BX c #477EA0",
"VX c #F4F6F7",
"CX c #3C5566",
"ZX c None",
"AX c #548AAB",
"SX c #546A78",
"DX c #47606F",
"FX c #365060",
"GX c None",
"HX c #36505F",
"JX c None",
"KX c #64A0C6",
"LX c #506673",
"PX c #314B5B",
"IX c #C7DCE9",
"UX c None",
"YX c #5E9DC1",
"TX c #FFFFFF",
"RX c #8697A0",
"EX c #C9D0D4",
"WX c None",
"QX c #EBF2F6",
"!X c #455F6E",
"~X c #41799A",
"^X c #A0ADB4",
"/X c #344F5E",
"(X c None",
")X c #476070",
"_X c #324A59",
"`X c #4F8EB3",
"'X c #5C98BC",
"]X c #365060",
"[X c #629FC5",
"{X c #518FB5",
"}X c #6196B7",
"|X c #6BA3CB",
" o c #89B2CB",
".o c #798B96",
"Xo c #FDFEFE",
"oo c #324C5B",
"Oo c #C7CFD3",
"+o c None",
"@o c #5E9BC0",
"#o c None",
"$o c #C9D0D5",
"%o c #8697A1",
"&o c #609CC2",
"*o c #354F5E",
"=o c None",
"-o c None",
";o c #4F8CB2",
":o c #8898A3",
">o c #496272",
",o c #B3D1E3",
"<o c #A0ADB5",
"1o c None",
"2o c #4F8EB4",
"3o c #5F7583",
"4o c #4888AA",
"5o c #E0EBF2",
"6o c #415B6A",
"7o c #778A95",
"8o c #546C7C",
"9o c #304B5A",
"0o c #4F8FB5",
"qo c #435C6C",
"wo c #5F9BC2",
"eo c #8496A0",
"ro c #324C5C",
"to c #5E9BC1",
"yo c #385164",
"uo c #4D8BB1",
"io c #69A6CA",
"po c #2E4859",
"ao c None",
"so c #6BA7CC",
"do c None",
"fo c #B3D1E4",
"go c #69A6CB",
"ho c #5691B5",
"jo c #4C6472",
"ko c #345162",
"lo c #415B6B",
"zo c #4989AE",
"xo c #546C7D",
"co c None",
"vo c #4B8AB0",
"bo c #4E6776",
"no c #8496A1",
"mo c #4482AA",
"Mo c #3F5868",
"No c #69A6CB",
"Bo c #506878",
"Vo c None",
"Co c #5896BB",
"Zo c #689DBD",
"Ao c #3F5868",
"So c #ADCADC",
"Do c #F9FAFB",
"Fo c #5A97BD",
"Go c #2D4557",
"Ho c None",
"Jo c #92BAD3",
"Ko c #567183",
"Lo c #ABB8C0",
"Po c #4B89AF",
"Io c #F9FCFD",
"Uo c #DDE1E4",
"Yo c #67A3C8",
"To c None",
"Ro c #5693B8",
"Eo c None",
"Wo c #A7B4BB",
"Qo c #4E6777",
"!o c #4784AA",
"~o c #415D6E",
"^o c #4E6777",
"/o c #2D4959",
"(o c #CCE0ED",
")o c #BFD6E4",
"_o c #4484AA",
"`o c #A9B5BD",
"'o c #5793BA",
"]o c #6CA3C5",
"[o c #C1CACF",
"{o c #4786AC",
"}o c #4A6372",
"|o c #627884",
" O c #65A2C7",
".O c #2E4658",
"XO c None",
"oO c None",
"OO c #5492B7",
"+O c #4D6673",
"@O c #3B5464",
"#O c #6AA0C2",
"$O c #E5EFF5",
"%O c #77AACB",
"&O c #F5F6F7",
"*O c #5693B9",
"=O c #2F4A5A",
"-O c #3D5566",
";O c #4585AD",
":O c #6AA2C4",
">O c None",
",O c #66A2C8",
"<O c #F7F9FB",
"1O c #556C7A",
"2O c #4A6373",
"3O c #5291B6",
"4O c #E3EEF4",
"5O c #75A9CA",
"6O c #50697A",
"7O c #629EC4",
"8O c #3B5465",
"9O c None",
"0O c #465F6E",
"qO c #D7DCDF",
"wO c #619EC3",
"eO c #BDD5E4",
"rO c None",
"tO c #536B79",
"yO c #639FC5",
"uO c #69A5CA",
"iO c #87B5D2",
"pO c #B6D4E6",
"aO c #375262",
"sO c #FEFEFE",
"dO c None",
"fO c None",
"gO c #C8DCEA",
"hO c None",
"jO c #445E6D",
"kO c #334E5D",
"lO c #465F6F",
"zO c None",
"xO c #4E8DB2",
"cO c #A1ADB5",
"vO c #354F5F",
"bO c #4A89AF",
"nO c #EFF1F2",
"mO c #508EB4",
"MO c #536B7A",
"NO c #5D9AC0",
"BO c #5D9ABF",
"VO c #C6DBE9",
"CO c #445C6C",
"ZO c #47616D",
"AO c None",
"SO c None",
"DO c #5F9BC1",
"FO c #3D7697",
"GO c None",
"HO c #516A79",
"JO c None",
"KO c #4E8DB3",
"LO c #F3F7FA",
"PO c #516A79",
"IO c #335060",
"UO c #405A69",
"YO c #2F4A59",
"TO c #4C88AE",
"RO c #6CA9CE",
"EO c #536B7B",
"WO c #425B6B",
"QO c #314B5B",
"!O c None",
"~O c None",
"^O c #354E5D",
"/O c #4A89AE",
"(O c #314B5B",
")O c #5D9AC0",
"_O c #4C8AB0",
"`O c #4382AB",
"'O c #E0E4E7",
"]O c #6AA6CB",
"[O c #5996BB",
"{O c #B2D0E3",
"}O c #425F6F",
"|O c #53697C",
" + c #97C0DA",
".+ c #C9DCE7",
"X+ c #5F99C1",
"o+ c #577183",
"O+ c #405A6A",
"++ c #4888AD",
"@+ c #2F4A5A",
"#+ c #68A3C8",
"$+ c #4A89AF",
"%+ c #4D6675",
"&+ c #E8F0F6",
"*+ c #68A5CA",
"=+ c #2D4857",
"-+ c None",
";+ c #4685AB",
":+ c #679CBC",
">+ c #3E5767",
",+ c #F8F9FA",
"<+ c None",
"1+ c #5996BC",
"2+ c None",
"3+ c #557082",
"4+ c #748894",
"5+ c None",
"6+ c #4F8DB0",
"7+ c #4F6B7B",
"8+ c None",
"9+ c #6193B2",
"0+ c #768B98",
"q+ c #4D6676",
"w+ c None",
"e+ c #526A7B",
"r+ c #AAC8DA",
"t+ c #C0C9CE",
"y+ c #538FB4",
"u+ c #4385AB",
"i+ c #3E5768",
"p+ c #4685AB",
"a+ c #496271",
"s+ c None",
"d+ c #385261",
"f+ c #496272",
"g+ c #3A5566",
"h+ c #64A1C6",
"j+ c #B3CEDE",
"k+ c #5994BC",
"l+ c #5391B6",
"z+ c #3A5363",
"x+ c #66A2C8",
"c+ c #BEC6CB",
"v+ c #5592B8",
"b+ c #84B1CC",
"n+ c #D0E1EB",
"m+ c #2E4958",
"M+ c #2D4857",
"N+ c None",
"B+ c #5391B9",
"V+ c #CBD2D6",
"C+ c #629EC3",
"Z+ c #B1CBDB",
"A+ c #415C6B",
/* pixels */
"                                                                ",
"                      f 5+GXvX1o0oV 9XJOs+=X                    ",
"                N+=ohO'oB+uXy+n.{XmO6+a _ Po>Odo                ",
"              s zOe k+[OP 3.RoOO3O{XmOd ~.TObO$.SON+            ",
"            -onXNOk *XFo1+X.gX*OOO3O{XmOKOu vo*.4o7XhX          ",
"          +owoX+to)O{.*XFo1+X.gX*Oy.n.{X`X~.uovozo;OT JX        ",
"        w.7OYXG.&oDO@oBOk S 1+X.3.v+& n.mOd ~._O$+( t (X=X      ",
"      -+-XE.[X3 wOa.&oto)Ok Fo1+X.*Ov+3O{X2oxOuo4X( tXF *       ",
"    X 4 pXh+KXzXyO3 G.&otoBO*XFo[OgXRo& n.mOd S.vo$+G !o` 2+    ",
"    fO,Ox+x+ O% KXyO3 G.&o@o{.*X%XX.[ v+3O{X`X~.XX$+( %.;+I.    ",
"    5 m.<X<XYoYo#+@.yO3 C+a.r 9 k 1+gXn aX@ mOxO;oS./OtXcXu+GO  ",
"  # uOioioL *+ +(oo.KX, o gOIXVOl < #OeO2 #.k.z r+sX;.tX{o' 8.  ",
"  :.|Xsoso]ONo8 TX{O% iOq.&.$O4OV.Jo! ;XXoSol+}.+.x 9.++{o`OC   ",
"  :X&X).).so^.8 TX,oe.C.q.H 5O]o:OM.Cob+LOQX#Xn+q. o$+( ~ p+moN+",
"  cogoRORO).sopOTXfox+C.q.H %OeX/._.1+'X)osO5o^ .+ho$+( ~ p+_odo",
"  rO[.ZoO.:+{ j+TXZ+}X} <OIo&+1Xg 9+AX; K.Q.TXlX`.BXbXl.g.~XFOu.",
"  w+q o+Ko3+OXLoTXI 7+0+<.nOP.U <o4.}O~o2XVXsODoeoc koIO0XjXp.+X",
"  =.mXU.xo8oEOqXTXWoboW <.i H.)X0O|.D jo$o..c+,+Z. X!.ooJ / Goh ",
"  J.|O8o8oEOMO@XTX>.q+4+<.z.3o1Os.. 6oRX,+EXSXV+j L.D.ooJ / =+X ",
"  N e+MOMOZ PO`oTX>.%+xX<.6X'O>XUo%otOqO&O'.z+.ofXK LX(O@+.O.X  ",
"  =X6OHOPO$X(.:oOono-.x.U [o6.t+1.7o|o: cOCON.].^Xr.2.(O@+m+7   ",
"    XOA B BooXoX$Xq+MX2OyX}oa+DX!XWOUO].>+= $ ]Xc.d+!.(OYOM+oO  ",
"    Y m Qo^o5Xq+-.MX2OO 7.d.y w loUOwX| 8Oz+aO]X/X!.oo9opo+     ",
"      v +O%+-.) MX2OO j.)X!XW.|.6oQ >+CX@ON.c.h.p A.oo6 iXHo    ",
"      h <+f+MX2O}oO j.)X0OjOqoloUOwX5.,.= $ ]XvOkOroQO/oTo      ",
"        ] >oB.O j.7.d.0O> w loO+Ao5.CX@ON.c.HXp !.oo=O-         ",
"          8+v.ZO)XlOy W.w loO+Q >+-O8Oz+$ ]XvO1 _XM R X         ",
"            ,X9Oi.Y.W.|.loO+Q i+| 8O= 0 c.h.p NXPX!OX           ",
"              WX0.rXA+MoUOQ i+| dX= N.c.HX3XT.E Eo              ",
"                  #o~Ob kXR.g+t.yoFXF.*o^OVodOX                 ",
"                      X 8Xb.UX .aoZXAOf.WX                      ",
"                                                                "
};
