/* XPM */
static char *graphic[] = {
/* width height num_colors chars_per_pixel */
"16 16 204 2", 
/* colors */
"   c None",
".  c #4F8DB3",
"X  c #4D6879",
"o  c #365160",
"O  c None",
"+  c #496272",
"@  c #385262",
"#  c #3D5664",
"$  c None",
"%  c #E2EDF3",
"&  c #2F4B5A",
"*  c #5391B7",
"=  c #EBF1F5",
"-  c #3A5364",
";  c #476373",
":  c #679CC0",
">  c #344E5D",
",  c #609DC2",
"<  c #334F5F",
"1  c #4586AB",
"2  c #E5E8EB",
"3  c #617785",
"4  c #BCC5CB",
"5  c #8696A0",
"6  c None",
"7  c #5C99BE",
"8  c None",
"9  c #5B90B0",
"0  c None",
"q  c #2F4C61",
"w  c None",
"e  c #395261",
"r  c #E0ECF4",
"t  c #5B707E",
"y  c #80AFCC",
"u  c #687C89",
"i  c #548FB3",
"p  c #4986AC",
"a  c None",
"s  c #498AB0",
"d  c None",
"f  c #3F5969",
"g  c None",
"h  c #869AA6",
"j  c #567284",
"k  c None",
"l  c #5694B9",
"z  c #3D5666",
"x  c #5895BB",
"c  c #65A1C7",
"v  c #2F4959",
"b  c #5F9EC1",
"n  c #304A5C",
"m  c None",
"M  c #D1E1EB",
"N  c #3D5667",
"B  c None",
"V  c None",
"C  c #7E929D",
"Z  c None",
"A  c #89B7D4",
"S  c #6F838F",
"D  c None",
"F  c None",
"G  c #81ADC8",
"H  c #548FB7",
"J  c #4887AA",
"K  c None",
"L  c #619DC3",
"P  c #C2D8E4",
"I  c None",
"U  c #425A69",
"Y  c None",
"T  c #445D6D",
"R  c #738998",
"E  c #4D8BB0",
"W  c #516978",
"Q  c None",
"!  c #76A8C6",
"~  c #93B9D1",
"^  c #405968",
"/  c None",
"(  c #8CB6D1",
")  c #C4CCD0",
"_  c #4B6473",
"`  c #6BA7C9",
"'  c #788B97",
"]  c #2F4758",
"[  c None",
"{  c #81939D",
"}  c #5B98BE",
"|  c #83949F",
" . c #355264",
".. c #538EB2",
"X. c #5F9BC1",
"o. c #88B4CF",
"O. c None",
"+. c #DCE1E4",
"@. c None",
"#. c #3C5565",
"$. c #5794BA",
"%. c None",
"&. c #DAE0E3",
"*. c #4B6474",
"=. c #3F5868",
"-. c #47606F",
";. c None",
":. c #6E808C",
">. c None",
",. c #C2CBD2",
"<. c #4F90B5",
"1. c None",
"2. c #76ACCE",
"3. c #365060",
"4. c #518FB5",
"5. c None",
"6. c #5E9BC0",
"7. c None",
"8. c #68A5C9",
"9. c #C9D2D7",
"0. c #A0ADB5",
"q. c #516879",
"w. c None",
"e. c #344B5D",
"r. c #5F7785",
"t. c #435C6E",
"y. c #5E9BC1",
"u. c None",
"i. c #4D8BB1",
"p. c #7CAAC5",
"a. c #CEE1ED",
"s. c None",
"d. c #6BA7CC",
"f. c #82939D",
"g. c #415B6B",
"h. c #547082",
"j. c #4B8AB0",
"k. c #3F5868",
"l. c None",
"z. c #99BDD3",
"x. c #5693BA",
"c. c #536978",
"v. c #5795BB",
"b. c None",
"n. c None",
"m. c None",
"M. c #8D9CA6",
"N. c #689FC0",
"B. c #C4D6E1",
"V. c #324B5B",
"C. c None",
"Z. c #5492B7",
"A. c #ADCCDF",
"S. c #7C8E98",
"D. c None",
"F. c None",
"G. c #4886AE",
"H. c #407C9B",
"J. c #94BFDA",
"K. c None",
"L. c #467FA1",
"P. c #639FC5",
"I. c None",
"U. c None",
"Y. c #CFDFEA",
"T. c #314B5A",
"R. c #445E6D",
"E. c None",
"W. c None",
"Q. c #4E8DB2",
"!. c #354F5F",
"~. c #508EB4",
"^. c #5D9AC0",
"/. c #95BDD5",
"(. c #80A7BE",
"). c #76A7C5",
"_. c #405867",
"`. c #4486A9",
"'. c #83939D",
"]. c #536B7B",
"[. c #5793B7",
"{. c #3F596B",
"}. c None",
"|. c #4787AC",
" X c #619FC5",
".X c #405A6A",
"XX c #AECCDE",
"oX c None",
"OX c #C6CED4",
"+X c #4D6675",
"@X c #365161",
"#X c #68A5CA",
"$X c None",
"%X c #5996BC",
"&X c #83B3D2",
"*X c #79A6C2",
"=X c #496271",
"-X c #64A1C6",
";X c #6DA5C8",
":X c #566E7C",
">X c #5592B8",
",X c #91BBD5",
"<X c #708490",
"1X c None",
/* pixels */
"          F W.U.O C.l.1X        ",
"      8 >.v.x.H <.. E I O.      ",
"    / X.^.} %X$.Z.4.Q.s G.w     ",
"  u. Xb , y.7 %Xl * ~.i.p |.$X  ",
"  E.c -XP.L 6.} x >X4.Q.j.J ;.d ",
"oX8.#X2.A ;X,X/.y ! ).[.p...1 $ ",
"}.` d.J.a.&Xr A.( o.M z.P i `.a ",
"%.: N.~ Y.G % XX*X9 B.= (.L.H.D ",
"K.h.j h 9.R &.M.r.X ,.2 C  .q k ",
"K c.].| OX<X+.0.S.f.4 '.) U ] D.",
"m.q.W 3 ' :X{ 5 S u t ^ :._.v s.",
"  n._ +X*.+ -.T .XN - 3.> T.0 @.",
"  I.m ; =X-.R.g.k.#.@ !.n & F.  ",
"    Q 6 t.T g.f z - o e.V.B     ",
"      1.w.{.=.# e @X< [ b.      ",
"          Y 7.Z V g 5.          "
};
